<svg height="512pt" viewBox="0 0 512 512" width="512pt" xmlns="http://www.w3.org/2000/svg"><path fill="#333" d="m0 0v150.636719h512v-150.636719zm60.035156 90.316406v-30h30.023438v30zm60.050782 0v-30h30.023437v30zm201.878906 0v-30h130v30zm0 0"/><path fill="#333" d="m0 331.316406h512v-150.632812h-512zm451.964844-90.316406v30h-130v-30zm-301.855469 0v30h-30.023437v-30zm-60.050781 0v30h-30.023438v-30zm0 0"/><path fill="#333" d="m0 512h512v-150.636719h-512zm451.964844-90.316406v30h-130v-30zm-301.855469 0v30h-30.023437v-30zm-60.050781 0v30h-30.023438v-30zm0 0"/></svg>